<svg width="86" height="92" viewBox="0 0 86 92" fill="none" xmlns="http://www.w3.org/2000/svg">
<path d="M23.6713 29.4297C21.9142 29.5317 20.3129 29.4777 19.4913 28.6441C17.8841 25.1118 20.031 22.1192 23.4075 22.3771C30.1183 22.8868 25.9802 31.3488 25.4945 35.6908C24.9128 40.9263 26.6579 44.4227 28.3671 47.1754C29.6265 49.2084 31.0838 51.7632 34.3703 51.0915C34.6762 49.7422 34.8801 48.2969 35.1499 46.9175C32.4272 43.763 29.7765 41.5201 29.6685 36.7343C29.5546 31.8046 32.0794 27.2348 29.1468 22.8988C26.49 18.9767 18.3698 19.3065 17.3983 24.4641C16.6127 28.6321 20.6308 32.3804 23.6653 29.4237L23.6713 29.4297ZM56.0441 36.7403C55.9841 39.0912 55.0306 41.3581 54.215 42.7435C52.6857 45.3403 48.9794 47.0614 51.3423 51.0975C54.6528 51.7512 56.0801 49.2264 57.3455 47.1814C58.5329 45.2683 59.9063 42.6475 60.2181 39.8708C60.8838 33.8497 56.5359 28.3143 59.1746 24.2062C61.8614 20.0262 69.5318 23.8644 65.9634 28.902C65.1118 29.5317 63.5646 29.4657 62.0473 29.4237C65.7295 32.2964 69.07 28.5062 68.3143 24.4641C67.1569 18.317 58.8148 19.5764 56.5659 22.8988C53.7352 27.0788 56.1521 32.4583 56.0441 36.7343V36.7403ZM60.2181 61.8025C54.2689 61.2508 50.0049 53.2985 49.5132 48.7467C49.2133 45.97 49.6691 43.9909 50.1309 41.9698C49.7171 42.4676 49.1953 42.8754 48.6016 43.1513L48.4337 43.757C48.0019 45.3403 46.5566 46.4497 44.9193 46.4497H40.8173C39.18 46.4497 37.7347 45.3403 37.3029 43.757L37.141 43.1513C36.4573 42.8394 35.8816 42.3537 35.4438 41.7599C35.9536 44.2128 36.5173 46.3958 36.1934 49.0045C35.5877 53.8862 30.832 61.2867 25.2306 61.7965C18.7536 62.3842 15.0594 63.2778 11.9169 66.4923C10.6335 67.8117 8.97225 70.0246 8.52246 72.7594C7.47896 79.1164 12.4206 84.8916 17.92 82.4208C19.4133 81.7491 21.4224 77.9109 18.7057 76.1538C20.7267 82.115 12.9724 82.1689 11.659 77.719C10.0398 72.2496 15.7671 68.0576 20.0131 67.5358C22.334 67.2539 25.0987 67.9196 28.1033 67.5358C32.1094 67.026 34.5682 64.5432 36.9791 63.6196C35.5517 70.5644 26.0042 73.0952 26.0162 81.6352C26.0162 84.7597 27.5995 88.5319 29.6745 89.9892C35.5697 94.1273 44.8474 86.4989 38.0286 82.1569C40.3555 84.8497 39.0301 88.8618 35.4198 89.2036C30.3402 89.6894 28.3131 84.226 29.9384 79.806C31.2158 76.3277 35.3838 75.2062 38.0286 72.4955C40.4814 69.9887 41.465 67.2359 42.9882 64.927C43.9358 71.0262 51.7801 74.2526 54.7367 78.2408C57.2555 81.6412 56.4279 87.7343 52.6497 88.9457C47.5641 90.577 44.8174 85.0835 47.69 82.1569C42.6944 84.9876 46.5326 91.2726 51.6062 91.2966C56.9557 91.3206 59.7803 86.307 59.6964 81.3773C59.5584 72.9812 49.933 70.5224 48.7335 63.3618H48.9974C49.0154 63.5237 49.0394 63.6736 49.2613 63.6256C51.5342 65.1669 54.0051 67.11 57.8792 67.5418C60.9438 67.8836 63.6245 67.218 65.9694 67.5418C69.4658 68.0216 72.4044 70.5224 73.5379 73.0232C75.1391 76.5376 73.3639 81.7551 69.1 81.1134C66.5032 80.7236 66.905 77.8749 66.7491 76.1538C64.5841 77.9349 66.1793 81.6951 67.7926 82.4208C71.7147 84.184 76.5125 80.7896 77.1901 77.1973C78.0897 72.4595 75.5409 68.2735 73.7957 66.4923C70.5573 63.1819 66.821 62.4022 60.2241 61.7965L60.2181 61.8025ZM10.3576 51.6193C14.3397 57.7904 4.54034 59.1697 3.04704 53.9702C1.37383 48.1349 6.83726 44.1288 12.1867 44.8305C20.193 45.886 21.6263 57.1607 29.9384 58.1442C31.5456 56.531 32.7511 54.5219 33.8545 52.3989C23.7913 52.9387 23.7793 41.8199 12.9664 40.9143C8.8763 40.5725 4.73225 42.4496 2.78317 44.5666C-0.503287 48.1469 -0.38934 56.0092 4.09055 58.4021C9.74589 61.4247 16.0249 53.9582 10.3576 51.6133V51.6193ZM75.0971 40.9143C65.1418 40.0807 61.2556 50.0061 56.0381 51.8772C54.9646 52.261 54.7667 52.3809 52.1219 52.3989C52.8956 54.7558 54.2569 56.525 55.7742 58.1442C64.1703 57.1127 65.5256 45.7121 73.7897 44.8305C79.3131 44.2428 84.4827 48.6027 82.6656 54.2281C80.9744 59.4516 71.067 57.2267 75.355 51.6193C70.6592 54.0841 74.4974 60.1953 80.3147 58.9299C82.7135 58.4081 84.9685 55.1816 85.2743 53.4484C86.6837 45.5202 81.0883 41.4241 75.0911 40.9203L75.0971 40.9143ZM42.7843 0.697266C34.91 0.757237 28.649 7.12624 28.733 15.0005C28.7689 18.7488 30.2682 22.1492 32.6791 24.656C34.5502 26.5811 35.7616 29.0879 36.1755 31.7267V31.7387C36.3494 32.8661 37.3389 33.6877 38.4784 33.6877H47.2582C48.4157 33.6877 49.3992 32.8481 49.5731 31.7147C49.5911 31.5947 49.6211 31.4748 49.6391 31.3608C50.0889 28.86 51.2644 26.5211 53.0455 24.674C55.5044 22.1312 57.0156 18.6708 57.0156 14.8506C57.0156 7.0003 50.6346 0.643291 42.7724 0.703263L42.7843 0.697266ZM47.804 35.8347H37.9326C37.033 35.8347 36.3134 36.5544 36.3134 37.454V39.1332C36.3134 40.4825 37.2969 41.58 38.5803 41.7839L38.9821 43.3072C39.204 44.1348 39.9537 44.7165 40.8113 44.7165H44.9133C45.7769 44.7165 46.5206 44.1348 46.7425 43.3072L47.1563 41.7839C48.4337 41.592 49.4172 40.4825 49.4172 39.1452V37.466C49.4172 36.5664 48.6976 35.8467 47.798 35.8347H47.804Z" fill="url(#paint0_linear_469_12349)"/>
<defs>
<linearGradient id="paint0_linear_469_12349" x1="0.498242" y1="45.9999" x2="85.5022" y2="45.9999" gradientUnits="userSpaceOnUse">
<stop offset="0.01" stop-color="#42AFCC"/>
<stop offset="0.5" stop-color="#008EB3"/>
<stop offset="0.99" stop-color="#00737D"/>
</linearGradient>
</defs>
</svg>
